<?xml version="1.0" encoding="UTF-8" standalone="no"?>
<svg
   width="22px"
   height="22px"
   viewBox="0 0 22 22"
   version="1.1"
   id="svg8"
   sodipodi:docname="network-wireless-available.svg"
   inkscape:version="1.1.2 (0a00cf5339, 2022-02-04)"
   xmlns:inkscape="http://www.inkscape.org/namespaces/inkscape"
   xmlns:sodipodi="http://sodipodi.sourceforge.net/DTD/sodipodi-0.dtd"
   xmlns="http://www.w3.org/2000/svg"
   xmlns:svg="http://www.w3.org/2000/svg">
  <defs
     id="defs12" />
  <sodipodi:namedview
     id="namedview10"
     pagecolor="#ffffff"
     bordercolor="#666666"
     borderopacity="1.0"
     inkscape:pageshadow="2"
     inkscape:pageopacity="0.0"
     inkscape:pagecheckerboard="0"
     showgrid="false"
     inkscape:zoom="14.318182"
     inkscape:cx="-0.13968254"
     inkscape:cy="7.8920635"
     inkscape:window-width="1920"
     inkscape:window-height="1002"
     inkscape:window-x="0"
     inkscape:window-y="0"
     inkscape:window-maximized="1"
     inkscape:current-layer="surface1" />
  <g
     id="surface1">
    <defs
       id="defs3">
      <style
         id="current-color-scheme"
         type="text/css">
   .ColorScheme-Text { color:#eeeeee; } .ColorScheme-Highlight { color:#424242; }
  </style>
    </defs>
    <path
       id="path5"
       style="opacity:1;fill:currentColor"
       class="ColorScheme-Text"
       d="M 11 2.75 C 7.4375 2.75 4.1640624 3.878906 1.4726562 5.78125 L 2.3867188 6.8125 C 4.8281248 5.117188 7.792969 4.125 11 4.125 C 14.207031 4.125 17.171875 5.117188 19.617188 6.8125 L 20.527344 5.78125 C 17.835938 3.878906 14.5625 2.75 11 2.75 z M 11 6.875 C 8.496094 6.875 6.175781 7.6171885 4.234375 8.8828125 L 5.1601562 9.9296875 C 6.8515624 8.8749995 8.851562 8.25 11 8.25 C 13.148438 8.25 15.148438 8.8749995 16.839844 9.9296875 L 17.765625 8.8828125 C 15.824219 7.6171885 13.503906 6.875 11 6.875 z M 11 11 C 9.554688 11 8.195312 11.371094 7.015625 12.019531 L 7.9804688 13.101562 C 8.8945308 12.648439 9.910156 12.375 11 12.375 C 11.75 12.375 12.464844 12.515625 13.136719 12.742188 C 13.4375 12.320309 13.8125 11.957031 14.242188 11.675781 C 13.249999 11.246094 12.15625 11 11 11 z M 17.626953 12.123047 A 2.0899517 2.0899517 0 0 0 15.779297 14.105469 A 2.0899517 2.0899517 0 0 0 15.779297 14.199219 L 16.824219 14.199219 A 1.0449759 1.0449759 0 0 1 17.748047 13.160156 L 17.867188 13.160156 L 17.867188 12.123047 L 17.626953 12.123047 z M 17.869141 12.126953 L 17.869141 13.171875 A 1.0449759 1.0449759 0 0 1 18.908203 14.09375 L 18.908203 14.214844 L 18.914062 14.214844 A 1.0449759 1.0449759 0 0 1 17.992188 15.251953 L 17.871094 15.251953 L 17.871094 15.244141 A 2.0899517 2.0899517 0 0 0 17.664062 15.246094 A 2.0899517 2.0899517 0 0 0 16.826172 15.474609 L 16.826172 15.259766 L 16.824219 15.259766 L 16.824219 17.349609 L 17.869141 17.349609 L 17.869141 16.289062 L 17.871094 16.289062 L 18.113281 16.289062 A 2.0899517 2.0899517 0 0 0 19.960938 14.308594 A 2.0899517 2.0899517 0 0 0 19.960938 14.302734 A 2.0899517 2.0899517 0 0 0 19.960938 14.296875 A 2.0899517 2.0899517 0 0 0 19.960938 14.294922 A 2.0899517 2.0899517 0 0 0 19.960938 14.289062 A 2.0899517 2.0899517 0 0 0 19.960938 14.287109 A 2.0899517 2.0899517 0 0 0 19.960938 14.28125 A 2.0899517 2.0899517 0 0 0 19.960938 14.275391 A 2.0899517 2.0899517 0 0 0 19.960938 14.273438 A 2.0899517 2.0899517 0 0 0 19.960938 14.267578 A 2.0899517 2.0899517 0 0 0 19.960938 14.265625 A 2.0899517 2.0899517 0 0 0 19.960938 14.259766 A 2.0899517 2.0899517 0 0 0 19.960938 14.253906 A 2.0899517 2.0899517 0 0 0 19.960938 14.251953 A 2.0899517 2.0899517 0 0 0 19.960938 14.246094 A 2.0899517 2.0899517 0 0 0 19.960938 14.244141 A 2.0899517 2.0899517 0 0 0 19.960938 14.238281 A 2.0899517 2.0899517 0 0 0 19.960938 14.236328 A 2.0899517 2.0899517 0 0 0 19.960938 14.230469 A 2.0899517 2.0899517 0 0 0 19.960938 14.224609 A 2.0899517 2.0899517 0 0 0 19.960938 14.222656 A 2.0899517 2.0899517 0 0 0 19.960938 14.216797 A 2.0899517 2.0899517 0 0 0 19.960938 14.214844 L 19.945312 14.214844 L 19.945312 13.972656 A 2.0899517 2.0899517 0 0 0 17.964844 12.126953 A 2.0899517 2.0899517 0 0 0 17.869141 12.126953 z M 11 15.125 C 9.855469 15.125 8.9375 16.042969 8.9375 17.1875 C 8.9375 18.332031 9.855469 19.25 11 19.25 C 11.53125 19.25 12.007812 19.046875 12.375 18.71875 L 12.375 15.65625 C 12.007812 15.328125 11.53125 15.125 11 15.125 z M 16.826172 18.378906 L 16.826172 19.423828 L 17.873047 19.423828 L 17.873047 18.378906 L 16.826172 18.378906 z " />
  </g>
</svg>
