<?xml version="1.0" encoding="UTF-8" standalone="no"?>
<svg
   width="22px"
   height="22px"
   viewBox="0 0 22 22"
   version="1.1"
   id="svg8"
   sodipodi:docname="network-wireless-bluetooth.svg"
   inkscape:version="1.1.2 (0a00cf5339, 2022-02-04)"
   xmlns:inkscape="http://www.inkscape.org/namespaces/inkscape"
   xmlns:sodipodi="http://sodipodi.sourceforge.net/DTD/sodipodi-0.dtd"
   xmlns="http://www.w3.org/2000/svg"
   xmlns:svg="http://www.w3.org/2000/svg">
  <defs
     id="defs12" />
  <sodipodi:namedview
     id="namedview10"
     pagecolor="#ffffff"
     bordercolor="#666666"
     borderopacity="1.0"
     inkscape:pageshadow="2"
     inkscape:pageopacity="0.0"
     inkscape:pagecheckerboard="0"
     showgrid="false"
     inkscape:zoom="7.1590909"
     inkscape:cx="-24.723809"
     inkscape:cy="18.15873"
     inkscape:window-width="1920"
     inkscape:window-height="1002"
     inkscape:window-x="0"
     inkscape:window-y="0"
     inkscape:window-maximized="1"
     inkscape:current-layer="surface1" />
  <g
     id="surface1">
    <defs
       id="defs3">
      <style
         id="current-color-scheme"
         type="text/css">
   .ColorScheme-Text { color:#eeeeee; } .ColorScheme-Highlight { color:#424242; }
  </style>
    </defs>
    <path
       id="path5"
       style="fill:currentColor"
       class="ColorScheme-Text"
       d="M 11,2.75 C 7.4375,2.75 4.1640622,3.878906 1.4726562,5.78125 L 2.3867188,6.8125 C 4.8281248,5.117188 7.792969,4.125 11,4.125 c 3.207031,0 6.171875,0.992188 8.617188,2.6875 L 20.527344,5.78125 C 17.835938,3.878906 14.5625,2.75 11,2.75 Z m 0,4.125 c -2.503906,0 -4.824219,0.7421885 -6.765625,2.0078125 l 0.9257812,1.046875 C 6.8515623,8.8749995 8.851562,8.25 11,8.25 c 2.148438,0 4.148438,0.6249995 5.839844,1.6796875 l 0.925781,-1.046875 C 15.824219,7.6171885 13.503906,6.875 11,6.875 Z M 11,11 c -1.445312,0 -2.804688,0.371094 -3.984375,1.019531 l 0.9648438,1.082031 C 8.8945308,12.648439 9.910156,12.375 11,12.375 c 0.75,0 1.464844,0.140625 2.136719,0.367188 C 13.4375,12.320311 13.8125,11.957031 14.242188,11.675781 13.249999,11.246094 12.15625,11 11,11 Z m 5.076432,-0.01771 v 3.75 C 15.576433,14.107291 14.951426,13.482284 14.353776,13.06627 l -0.578125,0.916016 c 0.902338,0.583981 1.675787,1.125006 2.300781,2 v 0.125 c -0.624994,0.874995 -1.398443,1.416022 -2.300781,2 l 0.578125,0.916016 c 0.59765,-0.416016 1.222657,-1.041022 1.722656,-1.666016 v 3.75 c 1.49999,-10e-5 2.022494,-0.355944 2.496094,-0.964844 l 1.503906,-1.785156 -1.503906,-1.785156 c -0.160554,-0.206421 -0.327189,-0.383089 -0.535157,-0.527344 0.207968,-0.144254 0.374603,-0.320923 0.535157,-0.527344 l 1.503906,-1.785156 -1.503906,-1.785156 c -0.4736,-0.608896 -0.996104,-0.964744 -2.496094,-0.964844 z m 0.90039,0.90039 c 0.724994,0 1.84961,1.84961 1.84961,1.84961 0,0 -1.125005,1.875 -1.875,1.875 h -0.125 c 0,0 0.125,-0.625007 0.15039,-1.875 z M 11,15.125 c -1.144531,0 -2.0625,0.917969 -2.0625,2.0625 0,1.144531 0.917969,2.0625 2.0625,2.0625 0.53125,0 1.007812,-0.203125 1.375,-0.53125 v -3.0625 C 12.007812,15.328125 11.53125,15.125 11,15.125 Z m 5.826432,1.357286 h 0.125 c 0.749995,0 1.875,1.875 1.875,1.875 0,0 -1.124616,1.849609 -1.84961,1.849609 v -1.849609 c -0.02539,-1.249994 -0.15039,-1.875 -0.15039,-1.875 z"
       sodipodi:nodetypes="sccsccssccsccssccsccsccccccccccccccccccccscccsssccscscccc" />
  </g>
</svg>
