<?xml version="1.0" encoding="UTF-8" standalone="no"?>
<svg
   width="22px"
   height="22px"
   viewBox="0 0 22 22"
   version="1.1"
   id="svg8"
   sodipodi:docname="network-wireless-40-limited.svg"
   inkscape:version="1.1.2 (0a00cf5339, 2022-02-04)"
   xmlns:inkscape="http://www.inkscape.org/namespaces/inkscape"
   xmlns:sodipodi="http://sodipodi.sourceforge.net/DTD/sodipodi-0.dtd"
   xmlns="http://www.w3.org/2000/svg"
   xmlns:svg="http://www.w3.org/2000/svg">
  <defs
     id="defs12" />
  <sodipodi:namedview
     id="namedview10"
     pagecolor="#ffffff"
     bordercolor="#666666"
     borderopacity="1.0"
     inkscape:pageshadow="2"
     inkscape:pageopacity="0.0"
     inkscape:pagecheckerboard="0"
     showgrid="false"
     inkscape:zoom="28.636364"
     inkscape:cx="11.873016"
     inkscape:cy="14.28254"
     inkscape:window-width="1920"
     inkscape:window-height="1002"
     inkscape:window-x="0"
     inkscape:window-y="0"
     inkscape:window-maximized="1"
     inkscape:current-layer="surface1" />
  <g
     id="surface1">
    <defs
       id="defs3">
      <style
         id="current-color-scheme"
         type="text/css">
   .ColorScheme-Text { color:#eeeeee; } .ColorScheme-Highlight { color:#424242; }
  </style>
    </defs>
    <path
       id="path5"
       style="fill:currentColor;opacity:0.3"
       class="ColorScheme-Text"
       d="M 11,2.75 C 7.4375,2.75 4.1640622,3.878906 1.4726562,5.78125 L 2.3867188,6.8125 C 4.8281248,5.117188 7.792969,4.125 11,4.125 c 3.207031,0 6.171875,0.992188 8.617188,2.6875 L 20.527344,5.78125 C 17.835938,3.878906 14.5625,2.75 11,2.75 Z m 0,4.125 c -2.503906,0 -4.824219,0.7421885 -6.765625,2.0078125 l 0.9257812,1.046875 C 6.8515623,8.8749995 8.851562,8.25 11,8.25 c 2.148438,0 4.148438,0.6249995 5.839844,1.6796875 l 0.925781,-1.046875 C 15.824219,7.6171885 13.503906,6.875 11,6.875 Z M 11,11 c -1.445312,0 -2.804688,0.371094 -3.984375,1.019531 l 0.9648438,1.082031 C 8.8945308,12.648439 9.910156,12.375 11,12.375 c 0.75,0 1.464844,0.140625 2.136719,0.367188 C 13.4375,12.320311 13.8125,11.957031 14.242188,11.675781 13.249999,11.246094 12.15625,11 11,11 Z m 5.928844,0.681641 c -0.554,0 -1,0.446 -1,1 v 3 c 0,0.554 0.446,1 1,1 0.554,0 1,-0.446 1,-1 v -3 c 0,-0.554 -0.446,-1 -1,-1 z M 11,15.125 c -1.144531,0 -2.0625,0.917969 -2.0625,2.0625 0,1.144531 0.917969,2.0625 2.0625,2.0625 0.53125,0 1.007812,-0.203125 1.375,-0.53125 v -3.0625 C 12.007812,15.328125 11.53125,15.125 11,15.125 Z m 5.928844,2.556641 c -0.552285,0 -1,0.447715 -1,1 0,0.552285 0.447715,1 1,1 0.552285,0 1,-0.447715 1,-1 0,-0.552285 -0.447715,-1 -1,-1 z"
       sodipodi:nodetypes="sccsccssccsccssccsccsssssssssssccssssss" />
    <path
       id="path2199"
       style="fill:currentColor"
       class="ColorScheme-Text"
       d="m 16.928844,11.681641 c -0.554,0 -1,0.446 -1,1 v 3 c 0,0.554 0.446,1 1,1 0.554,0 1,-0.446 1,-1 v -3 c 0,-0.554 -0.446,-1 -1,-1 z M 11,15.125 c -1.144531,0 -2.0625,0.917969 -2.0625,2.0625 0,1.144531 0.917969,2.0625 2.0625,2.0625 0.53125,0 1.007812,-0.203125 1.375,-0.53125 v -3.0625 C 12.007812,15.328125 11.53125,15.125 11,15.125 Z m 5.928844,2.556641 c -0.552285,0 -1,0.447715 -1,1 0,0.552285 0.447715,1 1,1 0.552285,0 1,-0.447715 1,-1 0,-0.552285 -0.447715,-1 -1,-1 z"
       sodipodi:nodetypes="ssssssssssccssssss" />
  </g>
</svg>
